<?xml version="1.0" encoding="UTF-8" standalone="no"?>
<svg width="100px" height="92px" viewBox="0 0 100 92" version="1.1" xmlns="http://www.w3.org/2000/svg" xmlns:xlink="http://www.w3.org/1999/xlink" xmlns:sketch="http://www.bohemiancoding.com/sketch/ns">
    <!-- Generator: Sketch 3.2.2 (9983) - http://www.bohemiancoding.com/sketch -->
    <title>Slice 1</title>
    <desc>Created with Sketch.</desc>
    <defs></defs>
    <g id="Page-1" stroke="none" stroke-width="1" fill="none" fill-rule="evenodd" sketch:type="MSPage">
        <g id="logo" sketch:type="MSLayerGroup" fill="#607D8B">
            <g id="Group" sketch:type="MSShapeGroup">
                <path d="M96.8,9 C93.7,3.6 88.2,0.4 82,0.4 L16,0.4 C14.6,0.4 13.4,1.1 12.7,2.3 C12,3.5 12,5 12.7,6.1 L20.7,20 L4.8,20 C3.4,20 2.2,20.7 1.5,21.9 C0.8,23.1 0.8,24.5 1.5,25.7 L34.4,83 C37.5,88.4 43,91.6 49.3,91.6 C55.5,91.6 61.1,88.4 64.2,83 L96.9,26.2 C99.9,20.8 99.9,14.4 96.8,9 L96.8,9 Z M90.2,22.3 L57.5,79.2 C55.8,82.2 52.7,84 49.2,84 C45.8,84 42.7,82.2 40.9,79.2 L11.4,27.7 L25.1,27.7 L42.9,58.5 C42.3,59.5 42,60.7 42,62 C42,66 45.3,69.3 49.3,69.3 C53.3,69.3 56.6,66 56.6,62 C56.6,60.7 56.3,59.5 55.7,58.5 L71.4,31.2 C75.3,31.1 78.5,27.9 78.5,23.9 C78.5,19.9 75.2,16.6 71.2,16.6 C68.6,16.6 66.3,18 65,20.1 L29.5,20.1 L22.6,8.1 L82,8.1 C85.4,8.1 88.5,9.9 90.2,12.9 C91.9,15.8 91.9,19.3 90.2,22.3 L90.2,22.3 Z M64.6,27.7 L49.3,54.4 L33.9,27.7 L64.6,27.7 L64.6,27.7 Z" id="Shape"></path>
            </g>
        </g>
    </g>
</svg>
